<svg width="100" height="100" viewBox="0 0 100 100" fill="none" xmlns="http://www.w3.org/2000/svg">
    <path d="M20 35C20 33.8954 20.8954 33 22 33H28C29.1046 33 30 33.8954 30 35V65C30 66.1046 29.1046 67 28 67H22C20.8954 67 20 66.1046 20 65V35Z" fill="currentColor"/>
    <path d="M45 20C45 18.8954 45.8954 18 47 18H53C54.1046 18 55 18.8954 55 20V80C55 81.1046 54.1046 82 53 82H47C45.8954 82 45 81.1046 45 80V20Z" fill="currentColor"/>
    <path d="M70 48C70 46.8954 70.8954 46 72 46H78C79.1046 46 80 46.8954 80 48V58C80 59.1046 79.1046 60 78 60H72C70.8954 60 70 59.1046 70 58V48Z" fill="currentColor"/>
</svg>
